<mxfile host="Electron" agent="Mozilla/5.0 (Windows NT 10.0; Win64; x64) AppleWebKit/537.36 (KHTML, like Gecko) draw.io/27.0.9 Chrome/134.0.6998.205 Electron/35.4.0 Safari/537.36" version="27.0.9">
  <diagram name="Page-1" id="upwMmtDh8m9oPrQM5hgA">
    <mxGraphModel dx="2066" dy="1209" grid="1" gridSize="10" guides="1" tooltips="1" connect="1" arrows="1" fold="1" page="1" pageScale="1" pageWidth="850" pageHeight="1100" math="0" shadow="0">
      <root>
        <mxCell id="0" />
        <mxCell id="1" parent="0" />
        <mxCell id="JENbStVcz9d-Mb8aF427-7" value="" style="edgeStyle=orthogonalEdgeStyle;rounded=0;orthogonalLoop=1;jettySize=auto;html=1;strokeWidth=3;fontSize=13;fontFamily=Times New Roman;" edge="1" parent="1" source="JENbStVcz9d-Mb8aF427-1" target="JENbStVcz9d-Mb8aF427-3">
          <mxGeometry relative="1" as="geometry" />
        </mxCell>
        <mxCell id="JENbStVcz9d-Mb8aF427-1" value="" style="shape=waypoint;sketch=0;fillStyle=solid;size=6;pointerEvents=1;points=[];fillColor=none;resizable=0;rotatable=0;perimeter=centerPerimeter;snapToPoint=1;strokeWidth=7;fontSize=13;fontFamily=Times New Roman;" vertex="1" parent="1">
          <mxGeometry x="460" y="200" width="20" height="20" as="geometry" />
        </mxCell>
        <mxCell id="JENbStVcz9d-Mb8aF427-9" value="" style="edgeStyle=orthogonalEdgeStyle;rounded=0;orthogonalLoop=1;jettySize=auto;html=1;strokeWidth=3;fontSize=13;fontFamily=Times New Roman;" edge="1" parent="1" source="JENbStVcz9d-Mb8aF427-2" target="JENbStVcz9d-Mb8aF427-4">
          <mxGeometry relative="1" as="geometry" />
        </mxCell>
        <mxCell id="JENbStVcz9d-Mb8aF427-2" value="Traffic light turns yellow for all states" style="rounded=1;whiteSpace=wrap;html=1;strokeWidth=3;fontSize=13;fontFamily=Times New Roman;" vertex="1" parent="1">
          <mxGeometry x="410" y="410" width="120" height="60" as="geometry" />
        </mxCell>
        <mxCell id="JENbStVcz9d-Mb8aF427-8" value="" style="edgeStyle=orthogonalEdgeStyle;rounded=0;orthogonalLoop=1;jettySize=auto;html=1;strokeWidth=3;fontSize=13;fontFamily=Times New Roman;" edge="1" parent="1" source="JENbStVcz9d-Mb8aF427-3" target="JENbStVcz9d-Mb8aF427-2">
          <mxGeometry relative="1" as="geometry" />
        </mxCell>
        <mxCell id="JENbStVcz9d-Mb8aF427-3" value="Traffic light turns green for N&amp;amp;S lanes and red for E&amp;amp;W lanes" style="rounded=1;whiteSpace=wrap;html=1;strokeWidth=3;fontSize=13;fontFamily=Times New Roman;" vertex="1" parent="1">
          <mxGeometry x="410" y="290" width="120" height="70" as="geometry" />
        </mxCell>
        <mxCell id="JENbStVcz9d-Mb8aF427-10" value="" style="edgeStyle=orthogonalEdgeStyle;rounded=0;orthogonalLoop=1;jettySize=auto;html=1;strokeWidth=3;fontSize=13;fontFamily=Times New Roman;" edge="1" parent="1" source="JENbStVcz9d-Mb8aF427-4" target="JENbStVcz9d-Mb8aF427-5">
          <mxGeometry relative="1" as="geometry" />
        </mxCell>
        <mxCell id="JENbStVcz9d-Mb8aF427-4" value="Traffic light turns red for N&amp;amp;S lanes and stay yellow for E&amp;amp;W" style="rounded=1;whiteSpace=wrap;html=1;strokeWidth=3;fontSize=13;fontFamily=Times New Roman;" vertex="1" parent="1">
          <mxGeometry x="410" y="540" width="120" height="60" as="geometry" />
        </mxCell>
        <mxCell id="JENbStVcz9d-Mb8aF427-11" value="" style="edgeStyle=orthogonalEdgeStyle;rounded=0;orthogonalLoop=1;jettySize=auto;html=1;strokeWidth=3;fontSize=13;fontFamily=Times New Roman;" edge="1" parent="1" source="JENbStVcz9d-Mb8aF427-5" target="JENbStVcz9d-Mb8aF427-6">
          <mxGeometry relative="1" as="geometry" />
        </mxCell>
        <mxCell id="JENbStVcz9d-Mb8aF427-5" value="Traffic light stays red for N&amp;amp;S lanes and turn green for E&amp;amp;W" style="rounded=1;whiteSpace=wrap;html=1;strokeWidth=3;fontSize=13;fontFamily=Times New Roman;" vertex="1" parent="1">
          <mxGeometry x="410" y="670" width="120" height="60" as="geometry" />
        </mxCell>
        <mxCell id="JENbStVcz9d-Mb8aF427-19" value="" style="edgeStyle=orthogonalEdgeStyle;rounded=0;orthogonalLoop=1;jettySize=auto;html=1;" edge="1" parent="1" source="JENbStVcz9d-Mb8aF427-6" target="JENbStVcz9d-Mb8aF427-18">
          <mxGeometry relative="1" as="geometry" />
        </mxCell>
        <mxCell id="JENbStVcz9d-Mb8aF427-6" value="Traffic light turns yellow for all states" style="rounded=1;whiteSpace=wrap;html=1;strokeWidth=3;fontSize=13;fontFamily=Times New Roman;" vertex="1" parent="1">
          <mxGeometry x="410" y="800" width="120" height="60" as="geometry" />
        </mxCell>
        <mxCell id="JENbStVcz9d-Mb8aF427-12" value="" style="endArrow=classic;html=1;rounded=0;strokeWidth=3;fontSize=13;fontFamily=Times New Roman;" edge="1" parent="1">
          <mxGeometry width="50" height="50" relative="1" as="geometry">
            <mxPoint x="470" y="1000" as="sourcePoint" />
            <mxPoint x="470" y="240" as="targetPoint" />
            <Array as="points">
              <mxPoint x="470" y="1050" />
              <mxPoint x="320" y="1050" />
              <mxPoint x="320" y="890" />
              <mxPoint x="320" y="240" />
            </Array>
          </mxGeometry>
        </mxCell>
        <mxCell id="JENbStVcz9d-Mb8aF427-13" value="System Activity Diagram for normal mode" style="text;html=1;align=center;verticalAlign=middle;resizable=0;points=[];autosize=1;strokeColor=none;fillColor=none;strokeWidth=3;fontSize=13;fontFamily=Times New Roman;" vertex="1" parent="1">
          <mxGeometry x="340" y="128" width="250" height="30" as="geometry" />
        </mxCell>
        <mxCell id="JENbStVcz9d-Mb8aF427-14" value="t=10s" style="text;html=1;align=center;verticalAlign=middle;resizable=0;points=[];autosize=1;strokeColor=none;fillColor=none;strokeWidth=3;fontFamily=Times New Roman;fontSize=13;" vertex="1" parent="1">
          <mxGeometry x="480" y="368" width="50" height="30" as="geometry" />
        </mxCell>
        <mxCell id="JENbStVcz9d-Mb8aF427-15" value="t=2s" style="text;html=1;align=center;verticalAlign=middle;resizable=0;points=[];autosize=1;strokeColor=none;fillColor=none;strokeWidth=3;fontFamily=Times New Roman;fontSize=13;" vertex="1" parent="1">
          <mxGeometry x="480" y="488" width="50" height="30" as="geometry" />
        </mxCell>
        <mxCell id="JENbStVcz9d-Mb8aF427-16" value="t=1s" style="text;html=1;align=center;verticalAlign=middle;resizable=0;points=[];autosize=1;strokeColor=none;fillColor=none;strokeWidth=3;fontFamily=Times New Roman;fontSize=13;" vertex="1" parent="1">
          <mxGeometry x="480" y="618" width="50" height="30" as="geometry" />
        </mxCell>
        <mxCell id="JENbStVcz9d-Mb8aF427-17" value="t=10s" style="text;html=1;align=center;verticalAlign=middle;resizable=0;points=[];autosize=1;strokeColor=none;fillColor=none;fontFamily=Times New Roman;fontSize=13;" vertex="1" parent="1">
          <mxGeometry x="475" y="748" width="50" height="30" as="geometry" />
        </mxCell>
        <mxCell id="JENbStVcz9d-Mb8aF427-18" value="Traffic light turns red for E&amp;amp;W lanes and stay yellow for N&amp;amp;S" style="whiteSpace=wrap;html=1;fontSize=13;fontFamily=Times New Roman;rounded=1;strokeWidth=3;" vertex="1" parent="1">
          <mxGeometry x="410" y="940" width="120" height="60" as="geometry" />
        </mxCell>
      </root>
    </mxGraphModel>
  </diagram>
</mxfile>
